# xmcd
#
# Track frame offsets: 
#        150
#        19194
#        38629
#        58123
#        78997
#        96029
#        119063
#        140115
#        156314
#        178085
#        194713
#        199577
#        216227
#        240205
#        249407
#
# Disc length: 3338 seconds
#
# Revision: 1
# Processed by: cddbd v1.5.2PL0 Copyright (c) Steve Scherf et al.
# Submitted via: ExactAudioCopy v0.99pb5
#
DISCID=d70d080f
DTITLE=Brian Lenair - The Journey
DYEAR=2004
DGENRE=Jazz
TTITLE0=A Long Time Coming
TTITLE1=Tell Me (What Cha Gonna Do)
TTITLE2=I Love You
TTITLE3=Sleep Walkin'
TTITLE4=Gone Ridin'
TTITLE5=Forever
TTITLE6=Love
TTITLE7=Kickin' Back
TTITLE8=I Keep Forgettin' (Every Time You Are Near)
TTITLE9=Sign Of The Times
TTITLE10=Love (Interlude)
TTITLE11=The Journey (lenai's Song)
TTITLE12=Take A Look Inside
TTITLE13=A Long Time Coming Reprise)
TTITLE14=1
EXTD=YEAR: 2004
EXTT0=
EXTT1=
EXTT2=
EXTT3=
EXTT4=
EXTT5=
EXTT6=
EXTT7=
EXTT8=
EXTT9=
EXTT10=
EXTT11=
EXTT12=
EXTT13=
EXTT14=
PLAYORDER=
